%
M48
M72
T01C0.0197
T02C0.0354
T03C0.0800
%
T01
X2995Y4018
X3388Y4412
X2995Y5199
X2207Y4806
X3034Y7483
X2601Y8743
X2601Y9530
X3782Y10711
X4609Y9806
X7168Y9176
X8506Y10711
X8900Y9373
X9491Y8900
X9097Y8073
X9097Y7168
X8703Y6577
X7325Y4412
X5987Y4333
X5475Y4333
X4491Y2443
X7325Y2443
X9058Y4294
X10475Y5199
X10475Y9924
T02
X6735Y10908
X5554Y10908
T03
X1816Y7089
X10316Y7089
M30
