G75*
%MOIN*%
%OFA0B0*%
%FSLAX24Y24*%
%IPPOS*%
%LPD*%
%AMOC8*
5,1,8,0,0,1.08239X$1,22.5*
%
%ADD10C,0.1200*%
%ADD11C,0.4000*%
%ADD12C,0.0120*%
%ADD13C,0.0337*%
D10*
X001816Y006489D02*
X001816Y007689D01*
X010316Y007689D02*
X010316Y006489D01*
D11*
X006066Y007089D03*
D12*
X002689Y003597D02*
X009442Y003597D01*
X009561Y003715D02*
X002570Y003715D01*
X002452Y003834D02*
X009679Y003834D01*
X009798Y003952D02*
X002333Y003952D01*
X002215Y004071D02*
X009916Y004071D01*
X010035Y004189D02*
X002096Y004189D01*
X001978Y004308D02*
X010153Y004308D01*
X010272Y004426D02*
X001859Y004426D01*
X001741Y004545D02*
X010390Y004545D01*
X010509Y004663D02*
X001622Y004663D01*
X001504Y004782D02*
X010627Y004782D01*
X010746Y004900D02*
X001385Y004900D01*
X001267Y005019D02*
X005448Y005019D01*
X005479Y005009D02*
X005644Y004969D01*
X005811Y004942D01*
X005981Y004929D01*
X006006Y004929D01*
X006006Y007029D01*
X006126Y007029D01*
X006126Y007149D01*
X008226Y007149D01*
X008226Y007174D01*
X008212Y007343D01*
X008186Y007511D01*
X008146Y007676D01*
X008094Y007837D01*
X008029Y007994D01*
X007952Y008145D01*
X007863Y008290D01*
X007763Y008427D01*
X007653Y008556D01*
X007533Y008676D01*
X007404Y008787D01*
X007266Y008886D01*
X007122Y008975D01*
X006971Y009052D01*
X006814Y009117D01*
X006652Y009170D01*
X006487Y009209D01*
X006320Y009236D01*
X006150Y009249D01*
X006126Y009249D01*
X006126Y007149D01*
X006006Y007149D01*
X006006Y009249D01*
X005981Y009249D01*
X005811Y009236D01*
X005644Y009209D01*
X005479Y009170D01*
X005317Y009117D01*
X005161Y009052D01*
X005009Y008975D01*
X004865Y008886D01*
X004727Y008787D01*
X004598Y008676D01*
X004478Y008556D01*
X004368Y008427D01*
X004268Y008290D01*
X004179Y008145D01*
X004102Y007994D01*
X004037Y007837D01*
X003985Y007676D01*
X003945Y007511D01*
X003919Y007343D01*
X003906Y007174D01*
X003906Y007149D01*
X006006Y007149D01*
X006006Y007029D01*
X003906Y007029D01*
X003906Y007004D01*
X003919Y006835D01*
X003945Y006667D01*
X003985Y006502D01*
X004037Y006341D01*
X004102Y006184D01*
X004179Y006033D01*
X004268Y005888D01*
X004368Y005751D01*
X004478Y005622D01*
X004598Y005502D01*
X004727Y005392D01*
X004865Y005292D01*
X005009Y005203D01*
X005161Y005126D01*
X005317Y005061D01*
X005479Y005009D01*
X005139Y005137D02*
X001214Y005137D01*
X001214Y005071D02*
X001214Y006072D01*
X001408Y005879D01*
X001672Y005769D01*
X001959Y005769D01*
X002223Y005879D01*
X002426Y006081D01*
X002536Y006346D01*
X002536Y007832D01*
X002426Y008097D01*
X002223Y008300D01*
X001959Y008409D01*
X001672Y008409D01*
X001408Y008300D01*
X001214Y008106D01*
X001214Y011566D01*
X002272Y010508D01*
X002285Y010490D01*
X002292Y010489D01*
X002296Y010484D01*
X002319Y010484D01*
X002342Y010480D01*
X002348Y010484D01*
X002354Y010484D01*
X002370Y010499D01*
X002732Y010736D01*
X003510Y011138D01*
X004335Y011430D01*
X005192Y011608D01*
X006066Y011668D01*
X006939Y011608D01*
X007796Y011430D01*
X008621Y011138D01*
X009399Y010736D01*
X009761Y010499D01*
X009777Y010484D01*
X009784Y010484D01*
X009789Y010480D01*
X009812Y010484D01*
X009835Y010484D01*
X009839Y010489D01*
X009846Y010490D01*
X009859Y010508D01*
X010917Y011566D01*
X010917Y008106D01*
X010723Y008300D01*
X010459Y008409D01*
X010172Y008409D01*
X009908Y008300D01*
X009705Y008097D01*
X009596Y007832D01*
X009596Y006346D01*
X009705Y006081D01*
X009908Y005879D01*
X010172Y005769D01*
X010459Y005769D01*
X010723Y005879D01*
X010917Y006072D01*
X010917Y005071D01*
X007808Y001962D01*
X004323Y001962D01*
X001214Y005071D01*
X001214Y005256D02*
X004924Y005256D01*
X004751Y005374D02*
X001214Y005374D01*
X001214Y005493D02*
X004609Y005493D01*
X004489Y005611D02*
X001214Y005611D01*
X001214Y005730D02*
X004386Y005730D01*
X004297Y005848D02*
X002149Y005848D01*
X002311Y005967D02*
X004220Y005967D01*
X004153Y006085D02*
X002427Y006085D01*
X002477Y006204D02*
X004094Y006204D01*
X004045Y006322D02*
X002526Y006322D01*
X002536Y006441D02*
X004005Y006441D01*
X003971Y006559D02*
X002536Y006559D01*
X002536Y006678D02*
X003944Y006678D01*
X003925Y006796D02*
X002536Y006796D01*
X002536Y006915D02*
X003913Y006915D01*
X003906Y007152D02*
X002536Y007152D01*
X002536Y007270D02*
X003913Y007270D01*
X003926Y007389D02*
X002536Y007389D01*
X002536Y007507D02*
X003945Y007507D01*
X003973Y007626D02*
X002536Y007626D01*
X002536Y007744D02*
X004007Y007744D01*
X004048Y007863D02*
X002523Y007863D01*
X002474Y007981D02*
X004097Y007981D01*
X004156Y008100D02*
X002423Y008100D01*
X002305Y008218D02*
X004224Y008218D01*
X004302Y008337D02*
X002134Y008337D01*
X001497Y008337D02*
X001214Y008337D01*
X001214Y008455D02*
X004391Y008455D01*
X004495Y008574D02*
X001214Y008574D01*
X001214Y008692D02*
X004616Y008692D01*
X004760Y008811D02*
X001214Y008811D01*
X001214Y008929D02*
X004934Y008929D01*
X005151Y009048D02*
X001214Y009048D01*
X001214Y009166D02*
X005468Y009166D01*
X006006Y009166D02*
X006126Y009166D01*
X006126Y009048D02*
X006006Y009048D01*
X006006Y008929D02*
X006126Y008929D01*
X006126Y008811D02*
X006006Y008811D01*
X006006Y008692D02*
X006126Y008692D01*
X006126Y008574D02*
X006006Y008574D01*
X006006Y008455D02*
X006126Y008455D01*
X006126Y008337D02*
X006006Y008337D01*
X006006Y008218D02*
X006126Y008218D01*
X006126Y008100D02*
X006006Y008100D01*
X006006Y007981D02*
X006126Y007981D01*
X006126Y007863D02*
X006006Y007863D01*
X006006Y007744D02*
X006126Y007744D01*
X006126Y007626D02*
X006006Y007626D01*
X006006Y007507D02*
X006126Y007507D01*
X006126Y007389D02*
X006006Y007389D01*
X006006Y007270D02*
X006126Y007270D01*
X006126Y007152D02*
X006006Y007152D01*
X006006Y007033D02*
X002536Y007033D01*
X001482Y005848D02*
X001214Y005848D01*
X001214Y005967D02*
X001320Y005967D01*
X001326Y008218D02*
X001214Y008218D01*
X001214Y009285D02*
X010917Y009285D01*
X010917Y009403D02*
X001214Y009403D01*
X001214Y009522D02*
X010917Y009522D01*
X010917Y009640D02*
X001214Y009640D01*
X001214Y009759D02*
X010917Y009759D01*
X010917Y009877D02*
X001214Y009877D01*
X001214Y009996D02*
X010917Y009996D01*
X010917Y010114D02*
X001214Y010114D01*
X001214Y010233D02*
X010917Y010233D01*
X010917Y010351D02*
X001214Y010351D01*
X001214Y010470D02*
X010917Y010470D01*
X010917Y010588D02*
X009939Y010588D01*
X010057Y010707D02*
X010917Y010707D01*
X010917Y010825D02*
X010176Y010825D01*
X010294Y010944D02*
X010917Y010944D01*
X010917Y011062D02*
X010413Y011062D01*
X010531Y011181D02*
X010917Y011181D01*
X010917Y011299D02*
X010650Y011299D01*
X010768Y011418D02*
X010917Y011418D01*
X010917Y011536D02*
X010887Y011536D01*
X009625Y010588D02*
X002506Y010588D01*
X002687Y010707D02*
X005406Y010707D01*
X005414Y010698D02*
X005505Y010661D01*
X005603Y010661D01*
X005694Y010698D01*
X005763Y010768D01*
X005801Y010859D01*
X005801Y010957D01*
X005763Y011048D01*
X005694Y011118D01*
X005603Y011155D01*
X005505Y011155D01*
X005414Y011118D01*
X005344Y011048D01*
X005307Y010957D01*
X005307Y010859D01*
X005344Y010768D01*
X005414Y010698D01*
X005321Y010825D02*
X002904Y010825D01*
X003133Y010944D02*
X005307Y010944D01*
X005358Y011062D02*
X003363Y011062D01*
X003630Y011181D02*
X008501Y011181D01*
X008768Y011062D02*
X006930Y011062D01*
X006944Y011048D02*
X006875Y011118D01*
X006784Y011155D01*
X006686Y011155D01*
X006595Y011118D01*
X006525Y011048D01*
X006488Y010957D01*
X006488Y010859D01*
X006525Y010768D01*
X006595Y010698D01*
X006686Y010661D01*
X006784Y010661D01*
X006875Y010698D01*
X006944Y010768D01*
X006982Y010859D01*
X006982Y010957D01*
X006944Y011048D01*
X006982Y010944D02*
X008998Y010944D01*
X009227Y010825D02*
X006968Y010825D01*
X006883Y010707D02*
X009444Y010707D01*
X008167Y011299D02*
X003964Y011299D01*
X004298Y011418D02*
X007833Y011418D01*
X007287Y011536D02*
X004844Y011536D01*
X005749Y011062D02*
X006539Y011062D01*
X006488Y010944D02*
X005801Y010944D01*
X005787Y010825D02*
X006502Y010825D01*
X006587Y010707D02*
X005702Y010707D01*
X005871Y011655D02*
X006260Y011655D01*
X006663Y009166D02*
X010917Y009166D01*
X010917Y009048D02*
X006980Y009048D01*
X007197Y008929D02*
X010917Y008929D01*
X010917Y008811D02*
X007371Y008811D01*
X007515Y008692D02*
X010917Y008692D01*
X010917Y008574D02*
X007636Y008574D01*
X007740Y008455D02*
X010917Y008455D01*
X010917Y008337D02*
X010634Y008337D01*
X010805Y008218D02*
X010917Y008218D01*
X009997Y008337D02*
X007829Y008337D01*
X007907Y008218D02*
X009826Y008218D01*
X009708Y008100D02*
X007975Y008100D01*
X008034Y007981D02*
X009657Y007981D01*
X009608Y007863D02*
X008083Y007863D01*
X008124Y007744D02*
X009596Y007744D01*
X009596Y007626D02*
X008158Y007626D01*
X008186Y007507D02*
X009596Y007507D01*
X009596Y007389D02*
X008205Y007389D01*
X008218Y007270D02*
X009596Y007270D01*
X009596Y007152D02*
X008226Y007152D01*
X008226Y007029D02*
X006126Y007029D01*
X006126Y004929D01*
X006150Y004929D01*
X006320Y004942D01*
X006487Y004969D01*
X006652Y005009D01*
X006814Y005061D01*
X006971Y005126D01*
X007122Y005203D01*
X007266Y005292D01*
X007404Y005392D01*
X007533Y005502D01*
X007653Y005622D01*
X007763Y005751D01*
X007863Y005888D01*
X007952Y006033D01*
X008029Y006184D01*
X008094Y006341D01*
X008146Y006502D01*
X008186Y006667D01*
X008212Y006835D01*
X008226Y007004D01*
X008226Y007029D01*
X008218Y006915D02*
X009596Y006915D01*
X009596Y007033D02*
X006126Y007033D01*
X006126Y006915D02*
X006006Y006915D01*
X006006Y006796D02*
X006126Y006796D01*
X006126Y006678D02*
X006006Y006678D01*
X006006Y006559D02*
X006126Y006559D01*
X006126Y006441D02*
X006006Y006441D01*
X006006Y006322D02*
X006126Y006322D01*
X006126Y006204D02*
X006006Y006204D01*
X006006Y006085D02*
X006126Y006085D01*
X006126Y005967D02*
X006006Y005967D01*
X006006Y005848D02*
X006126Y005848D01*
X006126Y005730D02*
X006006Y005730D01*
X006006Y005611D02*
X006126Y005611D01*
X006126Y005493D02*
X006006Y005493D01*
X006006Y005374D02*
X006126Y005374D01*
X006126Y005256D02*
X006006Y005256D01*
X006006Y005137D02*
X006126Y005137D01*
X006126Y005019D02*
X006006Y005019D01*
X006683Y005019D02*
X010864Y005019D01*
X010917Y005137D02*
X006992Y005137D01*
X007207Y005256D02*
X010917Y005256D01*
X010917Y005374D02*
X007380Y005374D01*
X007522Y005493D02*
X010917Y005493D01*
X010917Y005611D02*
X007642Y005611D01*
X007745Y005730D02*
X010917Y005730D01*
X010917Y005848D02*
X010649Y005848D01*
X010811Y005967D02*
X010917Y005967D01*
X009982Y005848D02*
X007834Y005848D01*
X007911Y005967D02*
X009820Y005967D01*
X009704Y006085D02*
X007978Y006085D01*
X008037Y006204D02*
X009654Y006204D01*
X009605Y006322D02*
X008086Y006322D01*
X008126Y006441D02*
X009596Y006441D01*
X009596Y006559D02*
X008160Y006559D01*
X008187Y006678D02*
X009596Y006678D01*
X009596Y006796D02*
X008206Y006796D01*
X009324Y003478D02*
X002807Y003478D01*
X002926Y003360D02*
X009205Y003360D01*
X009087Y003241D02*
X003044Y003241D01*
X003163Y003123D02*
X008968Y003123D01*
X008850Y003004D02*
X003281Y003004D01*
X003400Y002886D02*
X008731Y002886D01*
X008613Y002767D02*
X003518Y002767D01*
X003637Y002649D02*
X008494Y002649D01*
X008376Y002530D02*
X003755Y002530D01*
X003874Y002412D02*
X008257Y002412D01*
X008139Y002293D02*
X003992Y002293D01*
X004111Y002175D02*
X008020Y002175D01*
X007902Y002056D02*
X004229Y002056D01*
X002192Y010588D02*
X001214Y010588D01*
X001214Y010707D02*
X002074Y010707D01*
X001955Y010825D02*
X001214Y010825D01*
X001214Y010944D02*
X001837Y010944D01*
X001718Y011062D02*
X001214Y011062D01*
X001214Y011181D02*
X001600Y011181D01*
X001481Y011299D02*
X001214Y011299D01*
X001214Y011418D02*
X001363Y011418D01*
X001244Y011536D02*
X001214Y011536D01*
D13*
X002601Y009530D03*
X002601Y008743D03*
X003034Y007483D03*
X002995Y005199D03*
X003388Y004412D03*
X002995Y004018D03*
X002207Y004806D03*
X004491Y002443D03*
X005475Y004333D03*
X005987Y004333D03*
X007325Y004412D03*
X007325Y002443D03*
X009058Y004294D03*
X010475Y005199D03*
X009097Y007168D03*
X008703Y006577D03*
X009097Y008073D03*
X009491Y008900D03*
X008900Y009373D03*
X008506Y010711D03*
X007168Y009176D03*
X004609Y009806D03*
X003782Y010711D03*
X010475Y009924D03*
M02*
