G75*
%MOIN*%
%OFA0B0*%
%FSLAX24Y24*%
%IPPOS*%
%LPD*%
%AMOC8*
5,1,8,0,0,1.08239X$1,22.5*
%
%ADD10C,0.0040*%
%ADD11C,0.0050*%
%ADD12C,0.0059*%
D10*
X004443Y003365D02*
X004750Y003365D01*
X004750Y003442D02*
X004673Y003518D01*
X004520Y003518D01*
X004443Y003442D01*
X004443Y003365D01*
X004520Y003211D02*
X004673Y003211D01*
X004750Y003288D01*
X004750Y003442D01*
X004903Y003518D02*
X005134Y003365D01*
X004903Y003211D01*
X005134Y003211D02*
X005134Y003672D01*
X005364Y003518D02*
X005287Y003442D01*
X005287Y003211D01*
X005517Y003211D01*
X005594Y003288D01*
X005517Y003365D01*
X005287Y003365D01*
X005364Y003518D02*
X005517Y003518D01*
X005747Y003442D02*
X005747Y003288D01*
X005824Y003211D01*
X006054Y003211D01*
X006054Y003672D01*
X006054Y003518D02*
X005824Y003518D01*
X005747Y003442D01*
X006208Y003442D02*
X006208Y003211D01*
X006361Y003211D02*
X006361Y003442D01*
X006285Y003518D01*
X006208Y003442D01*
X006361Y003442D02*
X006438Y003518D01*
X006515Y003518D01*
X006515Y003211D01*
X006668Y003211D02*
X006668Y003442D01*
X006745Y003518D01*
X006898Y003518D01*
X006898Y003365D02*
X006668Y003365D01*
X006668Y003211D02*
X006898Y003211D01*
X006975Y003288D01*
X006898Y003365D01*
X007129Y003442D02*
X007129Y003288D01*
X007205Y003211D01*
X007436Y003211D01*
X007436Y003058D02*
X007436Y003518D01*
X007205Y003518D01*
X007129Y003442D01*
X007589Y003518D02*
X007819Y003518D01*
X007896Y003442D01*
X007819Y003365D01*
X007666Y003365D01*
X007589Y003288D01*
X007666Y003211D01*
X007896Y003211D01*
X006975Y003961D02*
X006975Y004422D01*
X006822Y004115D02*
X006668Y003961D01*
X006668Y004422D01*
X006515Y004345D02*
X006515Y004268D01*
X006438Y004192D01*
X006285Y004192D01*
X006208Y004115D01*
X006208Y004038D01*
X006285Y003961D01*
X006438Y003961D01*
X006515Y004038D01*
X006515Y004345D02*
X006438Y004422D01*
X006285Y004422D01*
X006208Y004345D01*
X006054Y004422D02*
X006054Y003961D01*
X005824Y003961D01*
X005747Y004038D01*
X005747Y004115D01*
X005824Y004192D01*
X006054Y004192D01*
X005824Y004192D02*
X005747Y004268D01*
X005747Y004345D01*
X005824Y004422D01*
X006054Y004422D01*
X005594Y004422D02*
X005594Y003961D01*
X005364Y003961D01*
X005287Y004038D01*
X005287Y004345D01*
X005364Y004422D01*
X005594Y004422D01*
X006822Y004115D02*
X006975Y003961D01*
D11*
X004066Y003089D02*
X002066Y005189D01*
X002066Y006089D01*
X001666Y006089D01*
X001666Y008089D01*
X002066Y008089D01*
X002066Y010389D01*
X003766Y010389D01*
X004766Y010189D01*
X007266Y010189D01*
X008166Y010389D01*
X010066Y010389D01*
X010066Y008089D01*
X010466Y008089D01*
X010466Y006089D01*
X010066Y006089D01*
X010066Y005289D01*
X007966Y003089D01*
X004066Y003089D01*
X005020Y009202D02*
X005020Y009812D01*
X004817Y009812D02*
X005224Y009812D01*
X005424Y009812D02*
X005831Y009812D01*
X006032Y009609D02*
X006032Y009202D01*
X006032Y009507D02*
X006439Y009507D01*
X006439Y009609D02*
X006236Y009812D01*
X006032Y009609D01*
X005628Y009812D02*
X005628Y009202D01*
X006439Y009202D02*
X006439Y009609D01*
X006640Y009609D02*
X006742Y009507D01*
X007047Y009507D01*
X007047Y009202D02*
X007047Y009812D01*
X006742Y009812D01*
X006640Y009710D01*
X006640Y009609D01*
X006742Y009507D02*
X006640Y009405D01*
X006640Y009303D01*
X006742Y009202D01*
X007047Y009202D01*
D12*
X003108Y009537D02*
X002918Y009517D01*
X002897Y009453D01*
X002867Y009394D01*
X002988Y009245D01*
X002886Y009143D01*
X002737Y009264D01*
X002678Y009234D01*
X002593Y009438D01*
X002631Y009460D01*
X002663Y009489D01*
X002687Y009525D01*
X002702Y009566D01*
X002707Y009609D01*
X002701Y009653D01*
X002686Y009694D01*
X002661Y009730D01*
X002628Y009760D01*
X002589Y009781D01*
X002546Y009792D01*
X002502Y009792D01*
X002459Y009782D01*
X002420Y009762D01*
X002386Y009733D01*
X002360Y009698D01*
X002344Y009657D01*
X001936Y009657D01*
X001936Y009681D02*
X002127Y009700D01*
X002147Y009764D01*
X002178Y009824D01*
X002057Y009972D01*
X002159Y010074D01*
X002307Y009953D01*
X002367Y009984D01*
X002431Y010004D01*
X002450Y010195D01*
X002594Y010195D01*
X002614Y010004D01*
X002678Y009984D01*
X002737Y009953D01*
X002886Y010074D01*
X002988Y009972D01*
X002867Y009824D01*
X002897Y009764D01*
X002918Y009700D01*
X003108Y009681D01*
X003108Y009537D01*
X003108Y009542D02*
X002693Y009542D01*
X002706Y009599D02*
X003108Y009599D01*
X003108Y009657D02*
X002700Y009657D01*
X002672Y009714D02*
X002913Y009714D01*
X002893Y009772D02*
X002606Y009772D01*
X002439Y009772D02*
X002151Y009772D01*
X002131Y009714D02*
X002372Y009714D01*
X002344Y009657D02*
X002338Y009613D01*
X002342Y009569D01*
X002357Y009527D01*
X002381Y009490D01*
X002413Y009460D01*
X002452Y009438D01*
X002367Y009234D01*
X002307Y009264D01*
X002159Y009143D01*
X002057Y009245D01*
X002178Y009394D01*
X002147Y009453D01*
X002127Y009517D01*
X001936Y009537D01*
X001936Y009681D01*
X001936Y009599D02*
X002339Y009599D01*
X002352Y009542D02*
X001936Y009542D01*
X002137Y009484D02*
X002387Y009484D01*
X002447Y009426D02*
X002161Y009426D01*
X002158Y009369D02*
X002423Y009369D01*
X002399Y009311D02*
X002111Y009311D01*
X002064Y009254D02*
X002294Y009254D01*
X002328Y009254D02*
X002375Y009254D01*
X002223Y009196D02*
X002106Y009196D01*
X002598Y009426D02*
X002883Y009426D01*
X002887Y009369D02*
X002622Y009369D01*
X002645Y009311D02*
X002934Y009311D01*
X002981Y009254D02*
X002751Y009254D01*
X002717Y009254D02*
X002669Y009254D01*
X002821Y009196D02*
X002939Y009196D01*
X002907Y009484D02*
X002657Y009484D01*
X002871Y009829D02*
X002174Y009829D01*
X002127Y009887D02*
X002918Y009887D01*
X002965Y009944D02*
X002080Y009944D01*
X002086Y010002D02*
X002247Y010002D01*
X002177Y010060D02*
X002144Y010060D01*
X002423Y010002D02*
X002621Y010002D01*
X002608Y010060D02*
X002436Y010060D01*
X002442Y010117D02*
X002602Y010117D01*
X002596Y010175D02*
X002448Y010175D01*
X002797Y010002D02*
X002958Y010002D01*
X002900Y010060D02*
X002868Y010060D01*
M02*
