G75*
%MOIN*%
%OFA0B0*%
%FSLAX24Y24*%
%IPPOS*%
%LPD*%
%AMOC8*
5,1,8,0,0,1.08239X$1,22.5*
%
%ADD10R,0.0930X0.0300*%
%ADD11R,0.0375X0.0532*%
%ADD12R,0.0532X0.0375*%
%ADD13C,0.0375*%
%ADD14R,0.0336X0.0651*%
%ADD15R,0.0454X0.0296*%
%ADD16R,0.0454X0.0375*%
%ADD17C,0.0414*%
%ADD18C,0.1260*%
%ADD19R,0.0532X0.0532*%
D10*
X005823Y004922D03*
X005823Y005422D03*
X005823Y005922D03*
X005823Y006422D03*
X007883Y006422D03*
X007883Y005922D03*
X007883Y005422D03*
X007883Y004922D03*
D11*
X007207Y007050D03*
X006499Y007050D03*
X005829Y007247D03*
X005121Y007247D03*
X004451Y008821D03*
X003743Y008821D03*
X004136Y005278D03*
X004845Y005278D03*
X004845Y004491D03*
X004136Y004491D03*
X007680Y008782D03*
X008388Y008782D03*
X008625Y007247D03*
X007916Y007247D03*
D12*
X008821Y005632D03*
X008821Y004924D03*
X008428Y004058D03*
X008428Y003349D03*
X007640Y003664D03*
X007640Y002955D03*
X006459Y002955D03*
X006459Y003664D03*
X005672Y003664D03*
X005672Y002955D03*
X004097Y006105D03*
X004097Y006814D03*
X003310Y006814D03*
X003310Y006105D03*
X005829Y008546D03*
X005829Y009254D03*
X009609Y005632D03*
X009609Y004924D03*
D13*
X004006Y002975D03*
X004006Y003644D03*
X004975Y003644D03*
X004975Y002975D03*
D14*
X005258Y010219D03*
X005849Y010219D03*
X007030Y010219D03*
D15*
X007581Y011302D03*
X004707Y011302D03*
D16*
X004707Y010475D03*
X007581Y010475D03*
D17*
X006735Y010908D03*
X005554Y010908D03*
D18*
X001816Y007689D02*
X001816Y006489D01*
X010316Y006489D02*
X010316Y007689D01*
D19*
X008447Y008034D03*
X007621Y008034D03*
X004510Y008034D03*
X003684Y008034D03*
M02*
