%
M48
M72
T01C0.0197
T02C0.0354
T03C0.0800
%
T01
X2995Y4018
X3388Y4412
X2995Y5199
X2207Y4806
X3388Y7562
X2601Y8743
X2601Y9530
X3782Y10711
X4176Y9530
X4176Y8743
X6538Y9924
X7601Y8821
X8664Y7877
X8585Y6853
X7325Y4412
X6144Y4412
X5357Y4412
X4491Y2443
X7325Y2443
X9058Y4294
X10475Y5199
X10475Y9924
X8506Y10711
T02
X6735Y10908
X5554Y10908
T03
X1816Y7089
X10316Y7089
M30
