G75*
%MOIN*%
%OFA0B0*%
%FSLAX24Y24*%
%IPPOS*%
%LPD*%
%AMOC8*
5,1,8,0,0,1.08239X$1,22.5*
%
%ADD10R,0.0870X0.0240*%
%ADD11R,0.0315X0.0472*%
%ADD12R,0.0472X0.0315*%
%ADD13C,0.0315*%
%ADD14R,0.0276X0.0591*%
%ADD15R,0.0394X0.0236*%
%ADD16R,0.0394X0.0315*%
%ADD17R,0.0472X0.0472*%
D10*
X005823Y004922D03*
X005823Y005422D03*
X005823Y005922D03*
X005823Y006422D03*
X007883Y006422D03*
X007883Y005922D03*
X007883Y005422D03*
X007883Y004922D03*
D11*
X007207Y007247D03*
X006499Y007247D03*
X005829Y007247D03*
X005121Y007247D03*
X004845Y005278D03*
X004136Y005278D03*
X004136Y004491D03*
X004845Y004491D03*
X008073Y009215D03*
X008782Y009215D03*
D12*
X008034Y007995D03*
X008034Y007286D03*
X009136Y007168D03*
X009136Y006459D03*
X008821Y005632D03*
X008821Y004924D03*
X008428Y004058D03*
X008428Y003349D03*
X007640Y003664D03*
X007640Y002955D03*
X006459Y002955D03*
X006459Y003664D03*
X005672Y003664D03*
X005672Y002955D03*
X004097Y006105D03*
X004097Y006814D03*
X003310Y006814D03*
X003310Y006105D03*
X009609Y005632D03*
X009609Y004924D03*
D13*
X004006Y002975D03*
X004006Y003644D03*
X004975Y003644D03*
X004975Y002975D03*
D14*
X005258Y010219D03*
X005849Y010219D03*
X007030Y010219D03*
D15*
X007581Y011302D03*
X004707Y011302D03*
D16*
X004707Y010475D03*
X007581Y010475D03*
D17*
X006459Y009235D03*
X006459Y008408D03*
X005672Y008408D03*
X005672Y009235D03*
M02*
