G75*
%MOIN*%
%OFA0B0*%
%FSLAX24Y24*%
%IPPOS*%
%LPD*%
%AMOC8*
5,1,8,0,0,1.08239X$1,22.5*
%
%ADD10R,0.0870X0.0240*%
%ADD11R,0.0315X0.0472*%
%ADD12R,0.0472X0.0315*%
%ADD13C,0.0315*%
%ADD14R,0.0276X0.0591*%
%ADD15R,0.0394X0.0236*%
%ADD16R,0.0394X0.0315*%
%ADD17C,0.1200*%
%ADD18R,0.0472X0.0472*%
%ADD19C,0.0120*%
%ADD20C,0.0337*%
%ADD21C,0.0240*%
%ADD22C,0.0160*%
D10*
X005823Y004922D03*
X005823Y005422D03*
X005823Y005922D03*
X005823Y006422D03*
X007883Y006422D03*
X007883Y005922D03*
X007883Y005422D03*
X007883Y004922D03*
D11*
X007207Y007247D03*
X006499Y007247D03*
X005829Y007247D03*
X005121Y007247D03*
X004845Y005278D03*
X004136Y005278D03*
X004136Y004491D03*
X004845Y004491D03*
X008073Y009215D03*
X008782Y009215D03*
D12*
X008034Y007995D03*
X008034Y007286D03*
X009136Y007168D03*
X009136Y006459D03*
X008821Y005632D03*
X008821Y004924D03*
X008428Y004058D03*
X008428Y003349D03*
X007640Y003664D03*
X007640Y002955D03*
X006459Y002955D03*
X006459Y003664D03*
X005672Y003664D03*
X005672Y002955D03*
X004097Y006105D03*
X004097Y006814D03*
X003310Y006814D03*
X003310Y006105D03*
X009609Y005632D03*
X009609Y004924D03*
D13*
X004975Y003644D03*
X004975Y002975D03*
X004006Y002975D03*
X004006Y003644D03*
D14*
X005258Y010219D03*
X005849Y010219D03*
X007030Y010219D03*
D15*
X007581Y011302D03*
X004707Y011302D03*
D16*
X004707Y010475D03*
X007581Y010475D03*
D17*
X010316Y007689D02*
X010316Y006489D01*
X001816Y006489D02*
X001816Y007689D01*
D18*
X005672Y008408D03*
X005672Y009235D03*
X006459Y009235D03*
X006459Y008408D03*
D19*
X003692Y003597D02*
X002689Y003597D01*
X002570Y003715D02*
X003697Y003715D01*
X003701Y003737D02*
X003689Y003676D01*
X003689Y003663D01*
X003988Y003663D01*
X003988Y003962D01*
X003975Y003962D01*
X003914Y003950D01*
X003856Y003926D01*
X003804Y003891D01*
X003760Y003847D01*
X003725Y003795D01*
X003701Y003737D01*
X003751Y003834D02*
X002452Y003834D01*
X002333Y003952D02*
X003926Y003952D01*
X003988Y003952D02*
X004025Y003952D01*
X004025Y003962D02*
X004025Y003663D01*
X003988Y003663D01*
X003988Y003626D01*
X003689Y003626D01*
X003689Y003613D01*
X003701Y003552D01*
X003725Y003494D01*
X003760Y003442D01*
X003804Y003398D01*
X003856Y003363D01*
X003914Y003339D01*
X003975Y003327D01*
X003988Y003327D01*
X003988Y003626D01*
X004025Y003626D01*
X004025Y003663D01*
X004324Y003663D01*
X004324Y003676D01*
X004312Y003737D01*
X004288Y003795D01*
X004253Y003847D01*
X004209Y003891D01*
X004157Y003926D01*
X004099Y003950D01*
X004038Y003962D01*
X004025Y003962D01*
X004087Y003952D02*
X004795Y003952D01*
X004795Y003857D02*
X004740Y003801D01*
X004697Y003699D01*
X004697Y003589D01*
X004740Y003487D01*
X004818Y003409D01*
X004920Y003367D01*
X005030Y003367D01*
X005132Y003409D01*
X005210Y003487D01*
X005252Y003589D01*
X005252Y003699D01*
X005210Y003801D01*
X005155Y003857D01*
X005155Y004435D01*
X005123Y004468D01*
X005123Y004777D01*
X005052Y004847D01*
X004638Y004847D01*
X004568Y004777D01*
X004568Y004205D01*
X004638Y004134D01*
X004795Y004134D01*
X004795Y003857D01*
X004772Y003834D02*
X004262Y003834D01*
X004316Y003715D02*
X004704Y003715D01*
X004697Y003597D02*
X004321Y003597D01*
X004324Y003613D02*
X004312Y003552D01*
X004288Y003494D01*
X004253Y003442D01*
X004209Y003398D01*
X004157Y003363D01*
X004099Y003339D01*
X004038Y003327D01*
X004025Y003327D01*
X004025Y003626D01*
X004324Y003626D01*
X004324Y003613D01*
X004277Y003478D02*
X004749Y003478D01*
X004818Y003210D02*
X004740Y003132D01*
X004697Y003030D01*
X004697Y002920D01*
X004740Y002818D01*
X004763Y002794D01*
X004763Y002636D01*
X004880Y002519D01*
X005077Y002322D01*
X006148Y002322D01*
X006266Y002439D01*
X006266Y002439D01*
X006504Y002678D01*
X006745Y002678D01*
X006815Y002748D01*
X006815Y002755D01*
X007284Y002755D01*
X007284Y002748D01*
X007354Y002678D01*
X007926Y002678D01*
X007997Y002748D01*
X007997Y003162D01*
X007926Y003233D01*
X007354Y003233D01*
X007284Y003162D01*
X007284Y003155D01*
X007250Y003155D01*
X007250Y003944D01*
X007133Y004061D01*
X007053Y004140D01*
X007053Y005453D01*
X007185Y005322D01*
X007290Y005216D01*
X007364Y005216D01*
X007398Y005182D01*
X008309Y005182D01*
X008329Y005162D01*
X007398Y005162D01*
X007328Y005092D01*
X007328Y004752D01*
X007398Y004682D01*
X007868Y004682D01*
X008215Y004335D01*
X008142Y004335D01*
X008084Y004277D01*
X007959Y004277D01*
X007854Y004172D01*
X007624Y003941D01*
X007354Y003941D01*
X007284Y003871D01*
X007284Y003457D01*
X007354Y003386D01*
X007926Y003386D01*
X007997Y003457D01*
X007997Y003805D01*
X008071Y003880D01*
X008071Y003850D01*
X008142Y003780D01*
X008714Y003780D01*
X008784Y003850D01*
X008784Y004265D01*
X008714Y004335D01*
X008608Y004335D01*
X008608Y004452D01*
X008373Y004687D01*
X008438Y004752D01*
X008438Y005053D01*
X008465Y005025D01*
X008465Y004717D01*
X008535Y004646D01*
X009107Y004646D01*
X009178Y004717D01*
X009178Y004744D01*
X009253Y004744D01*
X009253Y004717D01*
X009323Y004646D01*
X009895Y004646D01*
X009965Y004717D01*
X009965Y005131D01*
X009895Y005201D01*
X009323Y005201D01*
X009253Y005131D01*
X009253Y005104D01*
X009178Y005104D01*
X009178Y005131D01*
X009107Y005201D01*
X008798Y005201D01*
X008645Y005355D01*
X009107Y005355D01*
X009178Y005425D01*
X009178Y005452D01*
X009253Y005452D01*
X009253Y005425D01*
X009323Y005355D01*
X009895Y005355D01*
X009965Y005425D01*
X009965Y005840D01*
X009939Y005866D01*
X010172Y005769D01*
X010459Y005769D01*
X010723Y005879D01*
X010917Y006072D01*
X010917Y005071D01*
X007808Y001962D01*
X004323Y001962D01*
X001214Y005071D01*
X001214Y006072D01*
X001408Y005879D01*
X001672Y005769D01*
X001959Y005769D01*
X002223Y005879D01*
X002426Y006081D01*
X002536Y006346D01*
X002536Y007832D01*
X002426Y008097D01*
X002223Y008300D01*
X001959Y008409D01*
X001672Y008409D01*
X001408Y008300D01*
X001214Y008106D01*
X001214Y011566D01*
X002272Y010508D01*
X002285Y010490D01*
X002292Y010489D01*
X002296Y010484D01*
X002319Y010484D01*
X002342Y010480D01*
X002348Y010484D01*
X002354Y010484D01*
X002370Y010499D01*
X002732Y010736D01*
X003510Y011138D01*
X004335Y011430D01*
X004390Y011442D01*
X004390Y011134D01*
X004461Y011064D01*
X004954Y011064D01*
X005024Y011134D01*
X005024Y011470D01*
X004954Y011540D01*
X004862Y011540D01*
X005192Y011608D01*
X006066Y011668D01*
X006939Y011608D01*
X007323Y011528D01*
X007264Y011470D01*
X007264Y011134D01*
X007335Y011064D01*
X007828Y011064D01*
X007898Y011134D01*
X007898Y011394D01*
X008621Y011138D01*
X009399Y010736D01*
X009761Y010499D01*
X009777Y010484D01*
X009784Y010484D01*
X009789Y010480D01*
X009812Y010484D01*
X009835Y010484D01*
X009839Y010489D01*
X009846Y010490D01*
X009859Y010508D01*
X010917Y011566D01*
X010917Y008106D01*
X010723Y008300D01*
X010556Y008369D01*
X010556Y008714D01*
X010519Y008802D01*
X009222Y010099D01*
X009154Y010167D01*
X009066Y010203D01*
X007833Y010203D01*
X007898Y010268D01*
X007898Y010682D01*
X007828Y010752D01*
X007335Y010752D01*
X007264Y010682D01*
X007264Y010587D01*
X007218Y010634D01*
X006843Y010634D01*
X006772Y010564D01*
X006772Y009874D01*
X006843Y009804D01*
X007106Y009804D01*
X007150Y009760D01*
X007238Y009723D01*
X008919Y009723D01*
X010076Y008566D01*
X010076Y008369D01*
X009908Y008300D01*
X009749Y008141D01*
X009749Y008502D01*
X009644Y008608D01*
X009060Y009192D01*
X009060Y009501D01*
X008989Y009571D01*
X008575Y009571D01*
X008505Y009501D01*
X008505Y008929D01*
X008351Y008929D01*
X008351Y009501D01*
X008281Y009571D01*
X007866Y009571D01*
X007796Y009501D01*
X007796Y009395D01*
X007172Y009395D01*
X006855Y009078D01*
X006855Y009177D01*
X006517Y009177D01*
X006517Y009293D01*
X006401Y009293D01*
X006401Y009177D01*
X006063Y009177D01*
X005730Y009177D01*
X005730Y009293D01*
X006401Y009293D01*
X006401Y009631D01*
X006202Y009631D01*
X006161Y009620D01*
X006125Y009599D01*
X006095Y009569D01*
X006074Y009533D01*
X006066Y009501D01*
X006057Y009533D01*
X006036Y009569D01*
X006006Y009599D01*
X005978Y009615D01*
X006052Y009689D01*
X006089Y009778D01*
X006089Y009856D01*
X006107Y009874D01*
X006107Y010564D01*
X006036Y010634D01*
X005661Y010634D01*
X005591Y010564D01*
X005591Y009928D01*
X005516Y009928D01*
X005516Y010564D01*
X005446Y010634D01*
X005071Y010634D01*
X005024Y010587D01*
X005024Y010682D01*
X004954Y010752D01*
X004461Y010752D01*
X004390Y010682D01*
X004390Y010268D01*
X004461Y010197D01*
X004954Y010197D01*
X005001Y010244D01*
X005001Y009874D01*
X005004Y009871D01*
X004867Y009734D01*
X004799Y009666D01*
X004763Y009578D01*
X004763Y008104D01*
X004799Y008016D01*
X005182Y007634D01*
X005256Y007603D01*
X004913Y007603D01*
X004843Y007533D01*
X004843Y006961D01*
X004913Y006890D01*
X004986Y006890D01*
X005276Y006600D01*
X004920Y006600D01*
X004762Y006757D01*
X004526Y006994D01*
X004453Y006994D01*
X004453Y007021D01*
X004383Y007091D01*
X003811Y007091D01*
X003741Y007021D01*
X003741Y006994D01*
X003666Y006994D01*
X003666Y007021D01*
X003596Y007091D01*
X003024Y007091D01*
X002953Y007021D01*
X002953Y006606D01*
X003024Y006536D01*
X003596Y006536D01*
X003666Y006606D01*
X003666Y006634D01*
X003741Y006634D01*
X003741Y006606D01*
X003811Y006536D01*
X004383Y006536D01*
X004429Y006582D01*
X004508Y006503D01*
X004665Y006345D01*
X004725Y006285D01*
X004453Y006285D01*
X004453Y006312D01*
X004383Y006382D01*
X003811Y006382D01*
X003741Y006312D01*
X003741Y006285D01*
X003666Y006285D01*
X003666Y006312D01*
X003596Y006382D01*
X003024Y006382D01*
X002953Y006312D01*
X002953Y005898D01*
X003024Y005827D01*
X003596Y005827D01*
X003666Y005898D01*
X003666Y005925D01*
X003741Y005925D01*
X003741Y005898D01*
X003811Y005827D01*
X004383Y005827D01*
X004453Y005898D01*
X004453Y005925D01*
X005001Y005925D01*
X004710Y005634D01*
X004638Y005634D01*
X004568Y005564D01*
X004568Y004992D01*
X004638Y004922D01*
X005052Y004922D01*
X005123Y004992D01*
X005123Y005537D01*
X005303Y005717D01*
X005338Y005682D01*
X006308Y005682D01*
X006378Y005752D01*
X006378Y006092D01*
X006308Y006162D01*
X005338Y006162D01*
X005309Y006132D01*
X005201Y006240D01*
X005280Y006240D01*
X005338Y006182D01*
X006308Y006182D01*
X006378Y006252D01*
X006378Y006592D01*
X006308Y006662D01*
X005724Y006662D01*
X005398Y006987D01*
X005398Y007533D01*
X005333Y007597D01*
X005616Y007597D01*
X005552Y007533D01*
X005552Y006961D01*
X005622Y006890D01*
X006036Y006890D01*
X006107Y006961D01*
X006107Y007067D01*
X006221Y007067D01*
X006221Y006961D01*
X006291Y006890D01*
X006653Y006890D01*
X006653Y003975D01*
X006686Y003941D01*
X006639Y003941D01*
X006639Y005353D01*
X006534Y005458D01*
X006390Y005602D01*
X006368Y005602D01*
X006308Y005662D01*
X005338Y005662D01*
X005268Y005592D01*
X005268Y005252D01*
X005328Y005192D01*
X005326Y005191D01*
X005290Y005170D01*
X005260Y005140D01*
X005239Y005104D01*
X005228Y005063D01*
X005228Y004922D01*
X005823Y004922D01*
X005823Y004922D01*
X005823Y004642D01*
X006279Y004642D01*
X006279Y004642D01*
X006279Y003941D01*
X006173Y003941D01*
X006103Y003871D01*
X006103Y003844D01*
X006028Y003844D01*
X006028Y003871D01*
X005958Y003941D01*
X005386Y003941D01*
X005316Y003871D01*
X005316Y003457D01*
X005386Y003386D01*
X005958Y003386D01*
X006028Y003457D01*
X006028Y003484D01*
X006103Y003484D01*
X006103Y003457D01*
X006173Y003386D01*
X006745Y003386D01*
X006815Y003457D01*
X006815Y003812D01*
X006850Y003778D01*
X006850Y003155D01*
X006815Y003155D01*
X006815Y003162D01*
X006745Y003233D01*
X006173Y003233D01*
X006103Y003162D01*
X006103Y002843D01*
X006068Y002808D01*
X006068Y002937D01*
X005691Y002937D01*
X005691Y002974D01*
X006068Y002974D01*
X006068Y003134D01*
X006057Y003175D01*
X006036Y003211D01*
X006006Y003241D01*
X006850Y003241D01*
X006850Y003360D02*
X004149Y003360D01*
X004099Y003280D02*
X004038Y003292D01*
X004025Y003292D01*
X004025Y002994D01*
X003988Y002994D01*
X003988Y003292D01*
X003975Y003292D01*
X003914Y003280D01*
X003856Y003256D01*
X003804Y003222D01*
X003760Y003177D01*
X003725Y003125D01*
X003701Y003068D01*
X003689Y003006D01*
X003689Y002994D01*
X003988Y002994D01*
X003988Y002956D01*
X004025Y002956D01*
X004025Y002657D01*
X004038Y002657D01*
X004099Y002670D01*
X004157Y002694D01*
X004209Y002728D01*
X004253Y002773D01*
X004288Y002825D01*
X004312Y002882D01*
X004324Y002944D01*
X004324Y002956D01*
X004025Y002956D01*
X004025Y002994D01*
X004324Y002994D01*
X004324Y003006D01*
X004312Y003068D01*
X004288Y003125D01*
X004253Y003177D01*
X004209Y003222D01*
X004157Y003256D01*
X004099Y003280D01*
X004025Y003241D02*
X003988Y003241D01*
X003988Y003123D02*
X004025Y003123D01*
X004025Y003004D02*
X003988Y003004D01*
X003988Y002956D02*
X003689Y002956D01*
X003689Y002944D01*
X003701Y002882D01*
X003725Y002825D01*
X003760Y002773D01*
X003804Y002728D01*
X003856Y002694D01*
X003914Y002670D01*
X003975Y002657D01*
X003988Y002657D01*
X003988Y002956D01*
X003988Y002886D02*
X004025Y002886D01*
X004025Y002767D02*
X003988Y002767D01*
X003765Y002767D02*
X003518Y002767D01*
X003400Y002886D02*
X003701Y002886D01*
X003689Y003004D02*
X003281Y003004D01*
X003163Y003123D02*
X003724Y003123D01*
X003833Y003241D02*
X003044Y003241D01*
X002926Y003360D02*
X003864Y003360D01*
X003988Y003360D02*
X004025Y003360D01*
X004025Y003478D02*
X003988Y003478D01*
X003988Y003597D02*
X004025Y003597D01*
X004025Y003715D02*
X003988Y003715D01*
X003988Y003834D02*
X004025Y003834D01*
X003929Y004134D02*
X003859Y004205D01*
X003859Y004777D01*
X003929Y004847D01*
X003956Y004847D01*
X003956Y004922D01*
X003929Y004922D01*
X003859Y004992D01*
X003859Y005564D01*
X003929Y005634D01*
X004344Y005634D01*
X004414Y005564D01*
X004414Y004992D01*
X004344Y004922D01*
X004316Y004922D01*
X004316Y004847D01*
X004344Y004847D01*
X004414Y004777D01*
X004414Y004205D01*
X004344Y004134D01*
X003929Y004134D01*
X003875Y004189D02*
X002096Y004189D01*
X001978Y004308D02*
X003859Y004308D01*
X003859Y004426D02*
X001859Y004426D01*
X001741Y004545D02*
X003859Y004545D01*
X003859Y004663D02*
X001622Y004663D01*
X001504Y004782D02*
X003864Y004782D01*
X003956Y004900D02*
X001385Y004900D01*
X001267Y005019D02*
X003859Y005019D01*
X003859Y005137D02*
X001214Y005137D01*
X001214Y005256D02*
X003859Y005256D01*
X003859Y005374D02*
X001214Y005374D01*
X001214Y005493D02*
X003859Y005493D01*
X003906Y005611D02*
X001214Y005611D01*
X001214Y005730D02*
X004806Y005730D01*
X004924Y005848D02*
X004404Y005848D01*
X004367Y005611D02*
X004615Y005611D01*
X004568Y005493D02*
X004414Y005493D01*
X004414Y005374D02*
X004568Y005374D01*
X004568Y005256D02*
X004414Y005256D01*
X004414Y005137D02*
X004568Y005137D01*
X004568Y005019D02*
X004414Y005019D01*
X004316Y004900D02*
X005228Y004900D01*
X005228Y004922D02*
X005228Y004781D01*
X005239Y004740D01*
X005260Y004704D01*
X005290Y004674D01*
X005326Y004653D01*
X005367Y004642D01*
X005823Y004642D01*
X005823Y004922D01*
X005823Y004922D01*
X005228Y004922D01*
X005228Y005019D02*
X005123Y005019D01*
X005123Y005137D02*
X005258Y005137D01*
X005268Y005256D02*
X005123Y005256D01*
X005123Y005374D02*
X005268Y005374D01*
X005268Y005493D02*
X005123Y005493D01*
X005196Y005611D02*
X005287Y005611D01*
X005278Y005908D02*
X005081Y006105D01*
X004097Y006105D01*
X003310Y006105D01*
X003616Y005848D02*
X003790Y005848D01*
X003751Y006322D02*
X003656Y006322D01*
X003618Y006559D02*
X003788Y006559D01*
X004097Y006814D02*
X004451Y006814D01*
X004688Y006577D01*
X004845Y006420D01*
X005821Y006420D01*
X005823Y006422D01*
X005786Y006459D01*
X005672Y006459D01*
X005121Y007010D01*
X005121Y007247D01*
X005398Y007270D02*
X005552Y007270D01*
X005552Y007152D02*
X005398Y007152D01*
X005398Y007033D02*
X005552Y007033D01*
X005598Y006915D02*
X005471Y006915D01*
X005590Y006796D02*
X006653Y006796D01*
X006653Y006678D02*
X005708Y006678D01*
X006061Y006915D02*
X006267Y006915D01*
X006221Y007033D02*
X006107Y007033D01*
X005829Y007247D02*
X006499Y007247D01*
X006378Y006559D02*
X006653Y006559D01*
X006653Y006441D02*
X006378Y006441D01*
X006378Y006322D02*
X006653Y006322D01*
X006653Y006204D02*
X006329Y006204D01*
X006378Y006085D02*
X006653Y006085D01*
X006653Y005967D02*
X006378Y005967D01*
X006378Y005848D02*
X006653Y005848D01*
X006653Y005730D02*
X006355Y005730D01*
X006358Y005611D02*
X006653Y005611D01*
X006653Y005493D02*
X006499Y005493D01*
X006618Y005374D02*
X006653Y005374D01*
X006639Y005256D02*
X006653Y005256D01*
X006639Y005137D02*
X006653Y005137D01*
X006639Y005019D02*
X006653Y005019D01*
X006639Y004900D02*
X006653Y004900D01*
X006639Y004782D02*
X006653Y004782D01*
X006639Y004663D02*
X006653Y004663D01*
X006639Y004545D02*
X006653Y004545D01*
X006639Y004426D02*
X006653Y004426D01*
X006639Y004308D02*
X006653Y004308D01*
X006639Y004189D02*
X006653Y004189D01*
X006639Y004071D02*
X006653Y004071D01*
X006639Y003952D02*
X006676Y003952D01*
X006815Y003715D02*
X006850Y003715D01*
X006850Y003597D02*
X006815Y003597D01*
X006815Y003478D02*
X006850Y003478D01*
X007250Y003478D02*
X007284Y003478D01*
X007284Y003597D02*
X007250Y003597D01*
X007250Y003715D02*
X007284Y003715D01*
X007284Y003834D02*
X007250Y003834D01*
X007241Y003952D02*
X007634Y003952D01*
X007753Y004071D02*
X007123Y004071D01*
X007053Y004189D02*
X007871Y004189D01*
X008034Y004097D02*
X008388Y004097D01*
X008428Y004058D01*
X008428Y004377D01*
X007883Y004922D01*
X007887Y004663D02*
X007053Y004663D01*
X007053Y004545D02*
X008006Y004545D01*
X008124Y004426D02*
X007053Y004426D01*
X007053Y004308D02*
X008114Y004308D01*
X008034Y004097D02*
X007640Y003703D01*
X007640Y003664D01*
X007997Y003715D02*
X009561Y003715D01*
X009679Y003834D02*
X008767Y003834D01*
X008784Y003952D02*
X009798Y003952D01*
X009916Y004071D02*
X008784Y004071D01*
X008784Y004189D02*
X010035Y004189D01*
X010153Y004308D02*
X008741Y004308D01*
X008608Y004426D02*
X010272Y004426D01*
X010390Y004545D02*
X008515Y004545D01*
X008519Y004663D02*
X008396Y004663D01*
X008438Y004782D02*
X008465Y004782D01*
X008465Y004900D02*
X008438Y004900D01*
X008438Y005019D02*
X008465Y005019D01*
X008821Y004924D02*
X008323Y005422D01*
X007883Y005422D01*
X007857Y005396D01*
X007365Y005396D01*
X007207Y005554D01*
X007207Y007247D01*
X007982Y007677D02*
X008015Y007677D01*
X008015Y007976D01*
X008053Y007976D01*
X008053Y008013D01*
X008430Y008013D01*
X008430Y008173D01*
X008419Y008214D01*
X008400Y008248D01*
X008668Y008248D01*
X008956Y007959D01*
X008956Y007445D01*
X008850Y007445D01*
X008780Y007375D01*
X008780Y006961D01*
X008850Y006890D01*
X009343Y006890D01*
X009174Y006737D01*
X008850Y006737D01*
X008780Y006666D01*
X008780Y006252D01*
X008787Y006246D01*
X008431Y006246D01*
X008438Y006252D01*
X008438Y006592D01*
X008368Y006662D01*
X008274Y006662D01*
X008274Y007009D01*
X008320Y007009D01*
X008390Y007079D01*
X008390Y007493D01*
X008320Y007563D01*
X008096Y007563D01*
X007982Y007677D01*
X008053Y007677D02*
X008291Y007677D01*
X008332Y007688D01*
X008368Y007709D01*
X008398Y007739D01*
X008419Y007775D01*
X008430Y007816D01*
X008430Y007976D01*
X008053Y007976D01*
X008053Y007677D01*
X008034Y007626D02*
X008956Y007626D01*
X008956Y007744D02*
X008401Y007744D01*
X008430Y007863D02*
X008956Y007863D01*
X008935Y007981D02*
X008053Y007981D01*
X008053Y007863D02*
X008015Y007863D01*
X008015Y007744D02*
X008053Y007744D01*
X008376Y007507D02*
X008956Y007507D01*
X008794Y007389D02*
X008390Y007389D01*
X008390Y007270D02*
X008780Y007270D01*
X008780Y007152D02*
X008390Y007152D01*
X008344Y007033D02*
X008780Y007033D01*
X008826Y006915D02*
X008274Y006915D01*
X008274Y006796D02*
X009239Y006796D01*
X009569Y006853D02*
X009136Y006459D01*
X009176Y006066D01*
X008310Y006066D01*
X008152Y005908D01*
X007897Y005908D01*
X007883Y005922D01*
X008152Y005908D02*
X008349Y005908D01*
X008625Y005632D01*
X008821Y005632D01*
X009609Y005632D01*
X009914Y005374D02*
X010917Y005374D01*
X010917Y005256D02*
X008744Y005256D01*
X008821Y004924D02*
X009609Y004924D01*
X009911Y004663D02*
X010509Y004663D01*
X010627Y004782D02*
X009965Y004782D01*
X009965Y004900D02*
X010746Y004900D01*
X010864Y005019D02*
X009965Y005019D01*
X009959Y005137D02*
X010917Y005137D01*
X010917Y005493D02*
X009965Y005493D01*
X009965Y005611D02*
X010917Y005611D01*
X010917Y005730D02*
X009965Y005730D01*
X009957Y005848D02*
X009982Y005848D01*
X010649Y005848D02*
X010917Y005848D01*
X010917Y005967D02*
X010811Y005967D01*
X009569Y006853D02*
X009569Y008428D01*
X008782Y009215D01*
X008505Y009166D02*
X008351Y009166D01*
X008351Y009048D02*
X008505Y009048D01*
X008505Y008929D02*
X008575Y008859D01*
X008884Y008859D01*
X009389Y008353D01*
X009389Y007445D01*
X009316Y007445D01*
X009316Y008109D01*
X008923Y008502D01*
X008817Y008608D01*
X006815Y008608D01*
X006815Y008641D01*
X006927Y008641D01*
X007033Y008747D01*
X007321Y009035D01*
X007796Y009035D01*
X007796Y008929D01*
X007215Y008929D01*
X007097Y008811D02*
X008932Y008811D01*
X009051Y008692D02*
X006978Y008692D01*
X006853Y008821D02*
X005869Y008821D01*
X005672Y008625D01*
X005672Y008408D01*
X005557Y008764D02*
X005386Y008764D01*
X005316Y008694D01*
X005316Y008178D01*
X005243Y008252D01*
X005243Y009431D01*
X005259Y009448D01*
X005276Y009448D01*
X005276Y009293D01*
X005614Y009293D01*
X005614Y009177D01*
X005276Y009177D01*
X005276Y008978D01*
X005286Y008937D01*
X005308Y008900D01*
X005337Y008871D01*
X005374Y008849D01*
X005415Y008839D01*
X005614Y008839D01*
X005614Y009177D01*
X005730Y009177D01*
X005730Y008937D01*
X005597Y008805D01*
X005557Y008764D01*
X005603Y008811D02*
X005243Y008811D01*
X005243Y008929D02*
X005291Y008929D01*
X005276Y009048D02*
X005243Y009048D01*
X005243Y009166D02*
X005276Y009166D01*
X005243Y009285D02*
X005614Y009285D01*
X005730Y009285D02*
X006401Y009285D01*
X006517Y009285D02*
X007061Y009285D01*
X006943Y009166D02*
X006855Y009166D01*
X006855Y009293D02*
X006855Y009492D01*
X006845Y009533D01*
X006823Y009569D01*
X006794Y009599D01*
X006757Y009620D01*
X006716Y009631D01*
X006517Y009631D01*
X006517Y009293D01*
X006855Y009293D01*
X006855Y009403D02*
X007796Y009403D01*
X007816Y009522D02*
X006848Y009522D01*
X007153Y009759D02*
X006081Y009759D01*
X006107Y009877D02*
X006772Y009877D01*
X006772Y009996D02*
X006107Y009996D01*
X006107Y010114D02*
X006772Y010114D01*
X006772Y010233D02*
X006107Y010233D01*
X006107Y010351D02*
X006772Y010351D01*
X006772Y010470D02*
X006107Y010470D01*
X006083Y010588D02*
X006796Y010588D01*
X006784Y010661D02*
X006875Y010698D01*
X006944Y010768D01*
X006982Y010859D01*
X006982Y010957D01*
X006944Y011048D01*
X006875Y011118D01*
X006784Y011155D01*
X006686Y011155D01*
X006595Y011118D01*
X006525Y011048D01*
X006488Y010957D01*
X006488Y010859D01*
X006525Y010768D01*
X006595Y010698D01*
X006686Y010661D01*
X006784Y010661D01*
X006883Y010707D02*
X007289Y010707D01*
X007264Y010588D02*
X007264Y010588D01*
X006968Y010825D02*
X009227Y010825D01*
X009444Y010707D02*
X007874Y010707D01*
X007898Y010588D02*
X009625Y010588D01*
X009939Y010588D02*
X010917Y010588D01*
X010917Y010470D02*
X007898Y010470D01*
X007898Y010351D02*
X010917Y010351D01*
X010917Y010233D02*
X007863Y010233D01*
X008330Y009522D02*
X008525Y009522D01*
X008505Y009403D02*
X008351Y009403D01*
X008351Y009285D02*
X008505Y009285D01*
X008351Y008929D02*
X008281Y008859D01*
X007866Y008859D01*
X007796Y008929D01*
X008073Y009215D02*
X007247Y009215D01*
X006853Y008821D01*
X006479Y008428D02*
X006459Y008408D01*
X006479Y008428D02*
X008743Y008428D01*
X009136Y008034D01*
X009136Y007168D01*
X009316Y007507D02*
X009389Y007507D01*
X009389Y007626D02*
X009316Y007626D01*
X009316Y007744D02*
X009389Y007744D01*
X009389Y007863D02*
X009316Y007863D01*
X009316Y007981D02*
X009389Y007981D01*
X009389Y008100D02*
X009316Y008100D01*
X009389Y008218D02*
X009207Y008218D01*
X009088Y008337D02*
X009389Y008337D01*
X009288Y008455D02*
X008970Y008455D01*
X008851Y008574D02*
X009169Y008574D01*
X009441Y008811D02*
X009831Y008811D01*
X009713Y008929D02*
X009323Y008929D01*
X009204Y009048D02*
X009594Y009048D01*
X009476Y009166D02*
X009086Y009166D01*
X009060Y009285D02*
X009357Y009285D01*
X009239Y009403D02*
X009060Y009403D01*
X009039Y009522D02*
X009120Y009522D01*
X009002Y009640D02*
X006003Y009640D01*
X006060Y009522D02*
X006071Y009522D01*
X006401Y009522D02*
X006517Y009522D01*
X006517Y009403D02*
X006401Y009403D01*
X005730Y009166D02*
X005614Y009166D01*
X005614Y009048D02*
X005730Y009048D01*
X005722Y008929D02*
X005614Y008929D01*
X005316Y008692D02*
X005243Y008692D01*
X005243Y008574D02*
X005316Y008574D01*
X005316Y008455D02*
X005243Y008455D01*
X005243Y008337D02*
X005316Y008337D01*
X005316Y008218D02*
X005276Y008218D01*
X004953Y007863D02*
X002523Y007863D01*
X002536Y007744D02*
X005071Y007744D01*
X005201Y007626D02*
X002536Y007626D01*
X002536Y007507D02*
X004843Y007507D01*
X004843Y007389D02*
X002536Y007389D01*
X002536Y007270D02*
X004843Y007270D01*
X004843Y007152D02*
X002536Y007152D01*
X002536Y007033D02*
X002966Y007033D01*
X002953Y006915D02*
X002536Y006915D01*
X002536Y006796D02*
X002953Y006796D01*
X002953Y006678D02*
X002536Y006678D01*
X002536Y006559D02*
X003001Y006559D01*
X002963Y006322D02*
X002526Y006322D01*
X002536Y006441D02*
X004570Y006441D01*
X004451Y006559D02*
X004406Y006559D01*
X004443Y006322D02*
X004688Y006322D01*
X004842Y006678D02*
X005199Y006678D01*
X005276Y006600D02*
X005276Y006600D01*
X005080Y006796D02*
X004723Y006796D01*
X004605Y006915D02*
X004889Y006915D01*
X004843Y007033D02*
X004441Y007033D01*
X004097Y006814D02*
X003310Y006814D01*
X003654Y007033D02*
X003753Y007033D01*
X002953Y006204D02*
X002477Y006204D01*
X002427Y006085D02*
X002953Y006085D01*
X002953Y005967D02*
X002311Y005967D01*
X002149Y005848D02*
X003003Y005848D01*
X004136Y005278D02*
X004136Y004491D01*
X004414Y004545D02*
X004568Y004545D01*
X004568Y004663D02*
X004414Y004663D01*
X004409Y004782D02*
X004572Y004782D01*
X004568Y004426D02*
X004414Y004426D01*
X004414Y004308D02*
X004568Y004308D01*
X004583Y004189D02*
X004398Y004189D01*
X004795Y004071D02*
X002215Y004071D01*
X002807Y003478D02*
X003736Y003478D01*
X004180Y003241D02*
X004892Y003241D01*
X004920Y003252D02*
X004818Y003210D01*
X004920Y003252D02*
X005030Y003252D01*
X005132Y003210D01*
X005210Y003132D01*
X005252Y003030D01*
X005252Y002920D01*
X005210Y002818D01*
X005179Y002786D01*
X005243Y002722D01*
X005294Y002722D01*
X005286Y002736D01*
X005276Y002777D01*
X005276Y002937D01*
X005653Y002937D01*
X005653Y002974D01*
X005276Y002974D01*
X005276Y003134D01*
X005286Y003175D01*
X005308Y003211D01*
X005337Y003241D01*
X005374Y003262D01*
X005415Y003273D01*
X005653Y003273D01*
X005653Y002974D01*
X005691Y002974D01*
X005691Y003273D01*
X005929Y003273D01*
X005970Y003262D01*
X006006Y003241D01*
X006068Y003123D02*
X006103Y003123D01*
X006103Y003004D02*
X006068Y003004D01*
X006068Y002886D02*
X006103Y002886D01*
X006356Y002530D02*
X008376Y002530D01*
X008494Y002649D02*
X006475Y002649D01*
X006238Y002412D02*
X008257Y002412D01*
X008139Y002293D02*
X003992Y002293D01*
X003874Y002412D02*
X004988Y002412D01*
X004869Y002530D02*
X003755Y002530D01*
X003637Y002649D02*
X004763Y002649D01*
X004763Y002767D02*
X004247Y002767D01*
X004312Y002886D02*
X004712Y002886D01*
X004697Y003004D02*
X004324Y003004D01*
X004289Y003123D02*
X004736Y003123D01*
X005058Y003241D02*
X005338Y003241D01*
X005276Y003123D02*
X005214Y003123D01*
X005252Y003004D02*
X005276Y003004D01*
X005276Y002886D02*
X005238Y002886D01*
X005198Y002767D02*
X005278Y002767D01*
X005653Y003004D02*
X005691Y003004D01*
X005691Y003123D02*
X005653Y003123D01*
X005653Y003241D02*
X005691Y003241D01*
X006028Y003478D02*
X006103Y003478D01*
X006459Y003664D02*
X006459Y005278D01*
X006316Y005422D01*
X005823Y005422D01*
X005809Y005908D02*
X005823Y005922D01*
X005809Y005908D02*
X005278Y005908D01*
X005239Y005908D01*
X004845Y005514D01*
X004845Y005278D01*
X005118Y004782D02*
X005228Y004782D01*
X005308Y004663D02*
X005123Y004663D01*
X005123Y004545D02*
X006279Y004545D01*
X006279Y004426D02*
X005155Y004426D01*
X005155Y004308D02*
X006279Y004308D01*
X006279Y004189D02*
X005155Y004189D01*
X005155Y004071D02*
X006279Y004071D01*
X006279Y003952D02*
X005155Y003952D01*
X005178Y003834D02*
X005316Y003834D01*
X005316Y003715D02*
X005246Y003715D01*
X005252Y003597D02*
X005316Y003597D01*
X005316Y003478D02*
X005201Y003478D01*
X004975Y003644D02*
X004975Y004361D01*
X004845Y004491D01*
X005672Y003664D02*
X006459Y003664D01*
X007250Y003360D02*
X008409Y003360D01*
X008409Y003368D02*
X008409Y003330D01*
X008446Y003330D01*
X008446Y003031D01*
X008685Y003031D01*
X008726Y003042D01*
X008762Y003063D01*
X008792Y003093D01*
X008813Y003130D01*
X008824Y003170D01*
X008824Y003330D01*
X008446Y003330D01*
X008446Y003368D01*
X008409Y003368D01*
X008409Y003666D01*
X008170Y003666D01*
X008130Y003656D01*
X008093Y003634D01*
X008063Y003605D01*
X008042Y003568D01*
X008031Y003528D01*
X008031Y003368D01*
X008409Y003368D01*
X008446Y003368D02*
X008446Y003666D01*
X008685Y003666D01*
X008726Y003656D01*
X008762Y003634D01*
X008792Y003605D01*
X008813Y003568D01*
X008824Y003528D01*
X008824Y003368D01*
X008446Y003368D01*
X008446Y003360D02*
X009205Y003360D01*
X009324Y003478D02*
X008824Y003478D01*
X008797Y003597D02*
X009442Y003597D01*
X009087Y003241D02*
X008824Y003241D01*
X008809Y003123D02*
X008968Y003123D01*
X008850Y003004D02*
X007997Y003004D01*
X008063Y003093D02*
X008093Y003063D01*
X008130Y003042D01*
X008170Y003031D01*
X008409Y003031D01*
X008409Y003330D01*
X008031Y003330D01*
X008031Y003170D01*
X008042Y003130D01*
X008063Y003093D01*
X008047Y003123D02*
X007997Y003123D01*
X008031Y003241D02*
X007250Y003241D01*
X007997Y003478D02*
X008031Y003478D01*
X008059Y003597D02*
X007997Y003597D01*
X008025Y003834D02*
X008088Y003834D01*
X008409Y003597D02*
X008446Y003597D01*
X008446Y003478D02*
X008409Y003478D01*
X008409Y003241D02*
X008446Y003241D01*
X008446Y003123D02*
X008409Y003123D01*
X008731Y002886D02*
X007997Y002886D01*
X007997Y002767D02*
X008613Y002767D01*
X008020Y002175D02*
X004111Y002175D01*
X004229Y002056D02*
X007902Y002056D01*
X009124Y004663D02*
X009306Y004663D01*
X009259Y005137D02*
X009172Y005137D01*
X009126Y005374D02*
X009304Y005374D01*
X008780Y006322D02*
X008438Y006322D01*
X008438Y006441D02*
X008780Y006441D01*
X008780Y006559D02*
X008438Y006559D01*
X008274Y006678D02*
X008791Y006678D01*
X008816Y008100D02*
X008430Y008100D01*
X008417Y008218D02*
X008698Y008218D01*
X009560Y008692D02*
X009950Y008692D01*
X010068Y008574D02*
X009678Y008574D01*
X009749Y008455D02*
X010076Y008455D01*
X009997Y008337D02*
X009749Y008337D01*
X009749Y008218D02*
X009826Y008218D01*
X010392Y008929D02*
X010917Y008929D01*
X010917Y008811D02*
X010510Y008811D01*
X010556Y008692D02*
X010917Y008692D01*
X010917Y008574D02*
X010556Y008574D01*
X010556Y008455D02*
X010917Y008455D01*
X010917Y008337D02*
X010634Y008337D01*
X010805Y008218D02*
X010917Y008218D01*
X010917Y009048D02*
X010273Y009048D01*
X010155Y009166D02*
X010917Y009166D01*
X010917Y009285D02*
X010036Y009285D01*
X009918Y009403D02*
X010917Y009403D01*
X010917Y009522D02*
X009799Y009522D01*
X009681Y009640D02*
X010917Y009640D01*
X010917Y009759D02*
X009562Y009759D01*
X009444Y009877D02*
X010917Y009877D01*
X010917Y009996D02*
X009325Y009996D01*
X009207Y010114D02*
X010917Y010114D01*
X010917Y010707D02*
X010057Y010707D01*
X010176Y010825D02*
X010917Y010825D01*
X010917Y010944D02*
X010294Y010944D01*
X010413Y011062D02*
X010917Y011062D01*
X010917Y011181D02*
X010531Y011181D01*
X010650Y011299D02*
X010917Y011299D01*
X010917Y011418D02*
X010768Y011418D01*
X010887Y011536D02*
X010917Y011536D01*
X008998Y010944D02*
X006982Y010944D01*
X006930Y011062D02*
X008768Y011062D01*
X008501Y011181D02*
X007898Y011181D01*
X007898Y011299D02*
X008167Y011299D01*
X007287Y011536D02*
X004958Y011536D01*
X005024Y011418D02*
X007264Y011418D01*
X007264Y011299D02*
X005024Y011299D01*
X005024Y011181D02*
X007264Y011181D01*
X006587Y010707D02*
X005702Y010707D01*
X005694Y010698D02*
X005763Y010768D01*
X005801Y010859D01*
X005801Y010957D01*
X005763Y011048D01*
X005694Y011118D01*
X005603Y011155D01*
X005505Y011155D01*
X005414Y011118D01*
X005344Y011048D01*
X005307Y010957D01*
X005307Y010859D01*
X005344Y010768D01*
X005414Y010698D01*
X005505Y010661D01*
X005603Y010661D01*
X005694Y010698D01*
X005615Y010588D02*
X005492Y010588D01*
X005516Y010470D02*
X005591Y010470D01*
X005591Y010351D02*
X005516Y010351D01*
X005516Y010233D02*
X005591Y010233D01*
X005591Y010114D02*
X005516Y010114D01*
X005516Y009996D02*
X005591Y009996D01*
X005276Y009403D02*
X005243Y009403D01*
X004892Y009759D02*
X001214Y009759D01*
X001214Y009877D02*
X005001Y009877D01*
X005001Y009996D02*
X001214Y009996D01*
X001214Y010114D02*
X005001Y010114D01*
X004989Y010233D02*
X005001Y010233D01*
X005024Y010588D02*
X005025Y010588D01*
X005000Y010707D02*
X005406Y010707D01*
X005321Y010825D02*
X002904Y010825D01*
X002687Y010707D02*
X004415Y010707D01*
X004390Y010588D02*
X002506Y010588D01*
X002192Y010588D02*
X001214Y010588D01*
X001214Y010470D02*
X004390Y010470D01*
X004390Y010351D02*
X001214Y010351D01*
X001214Y010233D02*
X004426Y010233D01*
X004788Y009640D02*
X001214Y009640D01*
X001214Y009522D02*
X004763Y009522D01*
X004763Y009403D02*
X001214Y009403D01*
X001214Y009285D02*
X004763Y009285D01*
X004763Y009166D02*
X001214Y009166D01*
X001214Y009048D02*
X004763Y009048D01*
X004763Y008929D02*
X001214Y008929D01*
X001214Y008811D02*
X004763Y008811D01*
X004763Y008692D02*
X001214Y008692D01*
X001214Y008574D02*
X004763Y008574D01*
X004763Y008455D02*
X001214Y008455D01*
X001214Y008337D02*
X001497Y008337D01*
X001326Y008218D02*
X001214Y008218D01*
X002134Y008337D02*
X004763Y008337D01*
X004763Y008218D02*
X002305Y008218D01*
X002423Y008100D02*
X004765Y008100D01*
X004834Y007981D02*
X002474Y007981D01*
X001320Y005967D02*
X001214Y005967D01*
X001214Y005848D02*
X001482Y005848D01*
X005237Y006204D02*
X005317Y006204D01*
X005398Y007389D02*
X005552Y007389D01*
X005552Y007507D02*
X005398Y007507D01*
X007053Y005374D02*
X007132Y005374D01*
X007053Y005256D02*
X007251Y005256D01*
X007373Y005137D02*
X007053Y005137D01*
X007053Y005019D02*
X007328Y005019D01*
X007328Y004900D02*
X007053Y004900D01*
X007053Y004782D02*
X007328Y004782D01*
X005823Y004782D02*
X005823Y004782D01*
X005823Y004900D02*
X005823Y004900D01*
X005823Y004663D02*
X005823Y004663D01*
X002074Y010707D02*
X001214Y010707D01*
X001214Y010825D02*
X001955Y010825D01*
X001837Y010944D02*
X001214Y010944D01*
X001214Y011062D02*
X001718Y011062D01*
X001600Y011181D02*
X001214Y011181D01*
X001214Y011299D02*
X001481Y011299D01*
X001363Y011418D02*
X001214Y011418D01*
X001214Y011536D02*
X001244Y011536D01*
X003133Y010944D02*
X005307Y010944D01*
X005358Y011062D02*
X003363Y011062D01*
X003630Y011181D02*
X004390Y011181D01*
X004390Y011299D02*
X003964Y011299D01*
X004298Y011418D02*
X004390Y011418D01*
X005749Y011062D02*
X006539Y011062D01*
X006488Y010944D02*
X005801Y010944D01*
X005787Y010825D02*
X006502Y010825D01*
X006260Y011655D02*
X005871Y011655D01*
D20*
X006538Y009924D03*
X007601Y008821D03*
X008664Y007877D03*
X008585Y006853D03*
X007325Y004412D03*
X006144Y004412D03*
X005357Y004412D03*
X004491Y002443D03*
X002995Y004018D03*
X003388Y004412D03*
X002995Y005199D03*
X002207Y004806D03*
X003388Y007562D03*
X002601Y008743D03*
X002601Y009530D03*
X003782Y010711D03*
X004176Y009530D03*
X004176Y008743D03*
X008506Y010711D03*
X010475Y009924D03*
X010475Y005199D03*
X009058Y004294D03*
X007325Y002443D03*
D21*
X007883Y006422D02*
X008034Y006573D01*
X008034Y007286D01*
X007483Y007837D01*
X006853Y007837D01*
X005317Y007837D01*
X005003Y008152D01*
X005003Y009530D01*
X005160Y009688D01*
X005199Y009688D01*
X005711Y009688D01*
X005849Y009825D01*
X005849Y010219D01*
X007030Y010219D02*
X007286Y009963D01*
X009018Y009963D01*
X010316Y008666D01*
X010316Y007089D01*
D22*
X007050Y003861D02*
X007050Y002955D01*
X006459Y002955D01*
X006459Y002916D01*
X006066Y002522D01*
X005278Y002522D01*
X005160Y002522D01*
X004963Y002719D01*
X004963Y002963D01*
X004975Y002975D01*
X006853Y004058D02*
X007050Y003861D01*
X006853Y004058D02*
X006853Y004097D01*
X006853Y007837D01*
X007050Y002955D02*
X007640Y002955D01*
M02*
